<svg width="10" height="10" viewBox="0 0 10 10" fill="none" xmlns="http://www.w3.org/2000/svg">
<g clip-path="url(#clip0_259_15930)">
<path d="M5 0C7.76142 0 10 2.23858 10 5C10 7.76142 7.76142 10 5 10C2.23858 10 0 7.76142 0 5C0 4.82024 0.00884474 4.64263 0.0273438 4.46777C0.258999 6.45649 1.94911 8 4 8C6.20914 8 8 6.20914 8 4C8 1.94911 6.45649 0.258999 4.46777 0.0273438C4.64263 0.00884474 4.82024 0 5 0Z" fill="black"/>
<path d="M4 7C2.34315 7 1 5.65685 1 4C1 2.34315 2.34315 1 4 1C5.65685 1 7 2.34315 7 4C7 4.10786 6.99469 4.21442 6.98359 4.31934C6.8446 3.12611 5.83053 2.2 4.6 2.2C3.27452 2.2 2.2 3.27452 2.2 4.6C2.2 5.83053 3.12611 6.8446 4.31934 6.98359C4.21442 6.99469 4.10786 7 4 7Z" fill="black"/>
<circle cx="5" cy="5" r="1" fill="black"/>
</g>
<defs>
<clipPath id="clip0_259_15930">
<rect width="10" height="10" fill="white"/>
</clipPath>
</defs>
</svg>
