<svg width="10" height="10" viewBox="0 0 10 10" fill="none" xmlns="http://www.w3.org/2000/svg">
<g clip-path="url(#clip0_258_15881)">
<path d="M4.8898 10C4.30204 10 3.74286 9.95592 3.21224 9.86776C2.68571 9.7796 2.21837 9.62846 1.8102 9.41436C1.40612 9.20025 1.08571 8.90218 0.84898 8.52015C0.616327 8.13812 0.5 7.65533 0.5 7.07179C0.5 6.67716 0.585714 6.33921 0.757143 6.05793C0.928571 5.77666 1.14286 5.53946 1.4 5.34635C1.66122 5.14903 1.92653 4.98531 2.19592 4.85516C1.83673 4.63266 1.51429 4.35139 1.22857 4.01134C0.946939 3.67128 0.806122 3.23468 0.806122 2.70151C0.806122 2.15155 0.918367 1.70025 1.14286 1.34761C1.37143 0.994962 1.68163 0.722082 2.07347 0.528967C2.46531 0.331654 2.91224 0.195214 3.41429 0.119647C3.92041 0.0398825 4.44898 0 5 0C5.55102 0 6.07755 0.0398825 6.57959 0.119647C7.08571 0.195214 7.53469 0.331654 7.92653 0.528967C8.31837 0.72628 8.62653 1.00126 8.85102 1.3539C9.07959 1.70235 9.19388 2.15155 9.19388 2.70151C9.19388 3.23468 9.05102 3.67128 8.76531 4.01134C8.47959 4.35139 8.15714 4.63266 7.79796 4.85516C8.06735 4.98531 8.33265 5.14903 8.59388 5.34635C8.8551 5.53946 9.07143 5.77666 9.24286 6.05793C9.41429 6.33921 9.5 6.67716 9.5 7.07179C9.5 7.68052 9.37551 8.178 9.12653 8.56423C8.88163 8.94626 8.54286 9.24223 8.1102 9.45214C7.68163 9.65785 7.1898 9.80059 6.63469 9.88035C6.08367 9.96012 5.50204 10 4.8898 10ZM5 4.00504C5.33061 4.00504 5.58163 3.94626 5.75306 3.82872C5.92449 3.71117 6.0102 3.48237 6.0102 3.14232C6.0102 2.78128 5.92857 2.53359 5.76531 2.39924C5.60612 2.2649 5.35102 2.19773 5 2.19773C4.65306 2.19773 4.39796 2.2649 4.23469 2.39924C4.07143 2.53359 3.9898 2.78128 3.9898 3.14232C3.9898 3.48237 4.07551 3.71117 4.24694 3.82872C4.41837 3.94626 4.66939 4.00504 5 4.00504ZM5 7.69521C5.36327 7.69521 5.64286 7.63854 5.83878 7.52519C6.03469 7.41184 6.13265 7.16835 6.13265 6.79471C6.13265 6.38329 6.04082 6.09992 5.85714 5.94458C5.67755 5.78925 5.39184 5.71159 5 5.71159C4.60816 5.71159 4.32041 5.78925 4.13673 5.94458C3.95714 6.09992 3.86735 6.38329 3.86735 6.79471C3.86735 7.16835 3.96531 7.41184 4.16122 7.52519C4.35714 7.63854 4.63673 7.69521 5 7.69521Z" fill="black"/>
</g>
<defs>
<clipPath id="clip0_258_15881">
<rect width="10" height="10" fill="white"/>
</clipPath>
</defs>
</svg>
